<?xml version="1.0" encoding="UTF-8" standalone="no"?>
<!-- Created with Inkscape (http://www.inkscape.org/) -->

<svg
   version="1.1"
   id="svg2"
   xml:space="preserve"
   width="407.28665"
   height="397.14615"
   viewBox="0 0 407.28665 397.14615"
   sodipodi:docname="6746d0387aa3c3c30eb7665eee6931fa.ai"
   xmlns:inkscape="http://www.inkscape.org/namespaces/inkscape"
   xmlns:sodipodi="http://sodipodi.sourceforge.net/DTD/sodipodi-0.dtd"
   xmlns="http://www.w3.org/2000/svg"
   xmlns:svg="http://www.w3.org/2000/svg"><defs
     id="defs6"><clipPath
       clipPathUnits="userSpaceOnUse"
       id="clipPath16"><path
         d="M 0,360 H 360 V 0 H 0 Z"
         id="path14" /></clipPath><clipPath
       clipPathUnits="userSpaceOnUse"
       id="clipPath64"><path
         d="M 0,360 H 360 V 0 H 0 Z"
         id="path62" /></clipPath><clipPath
       clipPathUnits="userSpaceOnUse"
       id="clipPath78"><path
         d="M 0,360 H 360 V 0 H 0 Z"
         id="path76" /></clipPath></defs><sodipodi:namedview
     id="namedview4"
     pagecolor="#ffffff"
     bordercolor="#666666"
     borderopacity="1.0"
     inkscape:pageshadow="2"
     inkscape:pageopacity="0.0"
     inkscape:pagecheckerboard="0" /><g
     id="g8"
     inkscape:groupmode="layer"
     inkscape:label="6746d0387aa3c3c30eb7665eee6931fa"
     transform="matrix(1.3333333,0,0,-1.3333333,-30.666666,423.99932)"><g
       id="g10"><g
         id="g12"
         clip-path="url(#clipPath16)"><g
           id="g18"
           transform="translate(57.6392,285.3115)"><path
             d="m 0,0 c 2.653,0 4.98,-0.627 7.115,-1.918 2.137,-1.292 3.77,-3.031 4.99,-5.311 1.218,-2.278 1.836,-4.869 1.836,-7.701 0,-2.829 -0.616,-5.401 -1.83,-7.646 -1.22,-2.255 -2.855,-3.979 -4.996,-5.275 -2.133,-1.291 -4.459,-1.918 -7.115,-1.918 -2.655,0 -4.983,0.627 -7.116,1.918 -2.149,1.3 -3.8,3.03 -5.048,5.289 -1.238,2.24 -1.866,4.807 -1.866,7.632 0,2.828 0.63,5.415 1.871,7.686 1.231,2.254 2.928,4.046 5.042,5.326 C -4.981,-0.627 -2.653,0 0,0 M 13.528,8.471 13.527,8.472 C 9.492,10.825 4.941,12.02 0,12.02 c -4.937,0 -9.515,-1.191 -13.606,-3.542 -4.096,-2.355 -7.349,-5.626 -9.672,-9.721 -2.317,-4.087 -3.491,-8.692 -3.491,-13.687 0,-4.975 1.089,-9.562 3.238,-13.634 2.162,-4.099 5.181,-7.361 8.976,-9.697 3.803,-2.341 8.095,-3.527 12.758,-3.527 3.752,0 7.303,0.789 10.556,2.351 1.74,0.833 3.351,1.856 4.822,3.053 v -19.524 c 0,-1.925 0.64,-3.52 1.902,-4.738 1.244,-1.203 2.807,-1.812 4.647,-1.812 1.911,0 3.496,0.619 4.715,1.836 1.217,1.218 1.833,2.803 1.833,4.714 v 40.978 c 0,4.998 -1.191,9.606 -3.541,13.698 -2.35,4.084 -5.583,7.35 -9.609,9.703"
             style="fill:#0071ce;fill-opacity:1;fill-rule:nonzero;stroke:none"
             id="path20" /></g><g
           id="g22"
           transform="translate(142.0933,295.228)"><path
             d="m 0,0 c -1.217,1.216 -2.804,1.832 -4.715,1.832 -1.84,0 -3.404,-0.609 -4.646,-1.81 -1.263,-1.219 -1.902,-2.814 -1.902,-4.737 v -25.343 c 0,-1.773 -0.465,-3.325 -1.419,-4.744 -0.981,-1.461 -2.319,-2.594 -4.091,-3.468 -1.782,-0.879 -3.802,-1.326 -6.005,-1.326 -3.824,0 -6.775,1.042 -9.023,3.187 -2.189,2.088 -3.3,5.313 -3.3,9.586 v 22.108 c 0,1.848 -0.63,3.419 -1.88,4.672 -1.231,1.228 -2.845,1.875 -4.668,1.875 -1.851,0 -3.422,-0.63 -4.672,-1.879 -1.246,-1.247 -1.877,-2.818 -1.877,-4.668 v -22.108 c 0,-5.159 1.015,-9.661 3.02,-13.378 2.031,-3.768 4.897,-6.682 8.518,-8.657 3.572,-1.949 7.638,-2.936 12.085,-2.936 3.229,0 6.315,0.576 9.173,1.711 1.694,0.673 3.265,1.52 4.699,2.532 0.313,-0.709 0.754,-1.353 1.317,-1.912 1.244,-1.249 2.816,-1.882 4.671,-1.882 1.925,0 3.52,0.64 4.739,1.902 1.201,1.243 1.81,2.806 1.81,4.648 v 40.08 c 0,1.911 -0.616,3.496 -1.833,4.714 z"
             style="fill:#0071ce;fill-opacity:1;fill-rule:nonzero;stroke:none"
             id="path24" /></g><g
           id="g26"
           transform="translate(161.4019,296.9707)"><path
             d="M 0,0 C -1.841,0 -3.405,-0.609 -4.645,-1.808 -5.909,-3.03 -6.549,-4.624 -6.549,-6.549 v -39.989 c 0,-1.827 0.649,-3.441 1.877,-4.668 1.244,-1.249 2.816,-1.881 4.672,-1.881 1.926,0 3.521,0.64 4.738,1.901 1.201,1.244 1.81,2.807 1.81,4.648 v 39.989 c 0,1.91 -0.616,3.497 -1.833,4.715 C 3.498,-0.616 1.911,0 0,0"
             style="fill:#0071ce;fill-opacity:1;fill-rule:nonzero;stroke:none"
             id="path28" /></g><g
           id="g30"
           transform="translate(161.4019,316.8315)"><path
             d="m 0,0 c -2.149,0 -4.023,-0.782 -5.569,-2.329 -1.545,-1.545 -2.328,-3.417 -2.328,-5.567 0,-2.15 0.783,-4.024 2.328,-5.569 1.545,-1.545 3.418,-2.328 5.569,-2.328 2.151,0 4.024,0.783 5.569,2.328 1.545,1.545 2.327,3.419 2.327,5.569 0,2.15 -0.782,4.022 -2.327,5.567 C 4.023,-0.782 2.149,0 0,0"
             style="fill:#9579d3;fill-opacity:1;fill-rule:nonzero;stroke:none"
             id="path32" /></g><g
           id="g34"
           transform="translate(203.3223,285.3115)"><path
             d="m 0,0 c 2,0 3.783,-0.326 5.299,-0.967 1.502,-0.637 2.923,-1.673 4.195,-3.046 1.323,-1.49 3.044,-2.279 4.975,-2.279 1.183,0 2.258,0.332 3.176,0.972 2.341,1.599 2.834,3.574 2.834,4.949 0,1.374 -0.487,2.64 -1.379,3.623 C 14.059,9.07 7.632,12.02 0,12.02 c -4.997,0 -9.559,-1.162 -13.558,-3.451 -4.017,-2.301 -7.188,-5.552 -9.423,-9.664 -2.215,-4.077 -3.337,-8.732 -3.337,-13.835 0,-4.991 1.157,-9.591 3.44,-13.674 2.289,-4.101 5.517,-7.361 9.592,-9.688 4.057,-2.321 8.678,-3.496 13.736,-3.496 6.953,0 12.846,2.203 17.565,6.596 1.082,1.083 1.654,2.403 1.654,3.818 0,1.238 -0.416,3.062 -2.492,4.807 -2.325,1.746 -5.205,1.634 -8.101,-0.513 -2.17,-1.81 -4.992,-2.689 -8.626,-2.689 -2.744,0 -5.203,0.635 -7.31,1.883 -2.129,1.262 -3.742,2.962 -4.927,5.204 -1.191,2.248 -1.793,4.856 -1.793,7.752 0,4.618 1.238,8.194 3.785,10.928 C -7.284,-1.309 -4.08,0 0,0"
             style="fill:#0071ce;fill-opacity:1;fill-rule:nonzero;stroke:none"
             id="path36" /></g><g
           id="g38"
           transform="translate(272.1104,253.5605)"><path
             d="M 0,0 -16.245,19.931 -1.182,33.36 c 1.415,1.152 2.163,2.735 2.163,4.58 0,1.558 -0.578,2.975 -1.672,4.104 -1.146,1.364 -2.705,2.084 -4.518,2.084 -1.591,0 -3.035,-0.603 -4.094,-1.667 L -27.866,25.886 v 32.183 c 0,1.854 -0.602,3.396 -1.788,4.58 -1.187,1.189 -2.728,1.79 -4.581,1.79 -1.853,0 -3.394,-0.601 -4.58,-1.79 -1.187,-1.186 -1.789,-2.727 -1.789,-4.58 V -3.309 c 0,-1.85 0.602,-3.392 1.789,-4.578 1.186,-1.189 2.727,-1.79 4.58,-1.79 1.853,0 3.394,0.601 4.58,1.788 1.187,1.186 1.789,2.728 1.789,4.58 V 9.553 l 2.287,2.011 15.763,-19.493 c 1.209,-1.556 2.864,-2.377 4.788,-2.377 1.47,0 2.851,0.508 4.133,1.534 1.522,1.267 2.325,2.938 2.325,4.834 C 1.43,-2.356 0.925,-1.003 0,0"
             style="fill:#0071ce;fill-opacity:1;fill-rule:nonzero;stroke:none"
             id="path40" /></g><g
           id="g42"
           transform="translate(283.8018,194.9985)"><path
             d="m 0,0 c -20.225,0 -36.677,16.454 -36.677,36.678 0,3.592 2.912,6.504 6.504,6.504 3.591,0 6.503,-2.912 6.503,-6.504 0,-13.052 10.619,-23.671 23.67,-23.671 13.052,0 23.671,10.619 23.671,23.671 0,3.592 2.912,6.504 6.504,6.504 3.591,0 6.503,-2.912 6.503,-6.504 C 36.678,16.454 20.225,0 0,0"
             style="fill:#9579d3;fill-opacity:1;fill-rule:nonzero;stroke:none"
             id="path44" /></g><g
           id="g46"
           transform="translate(298.79,262.8467)"><path
             d="m 0,0 c 0,-3.458 2.591,-6.272 5.773,-6.272 h 18.128 c 3.184,0 5.774,2.814 5.774,6.272 0,3.458 -2.59,6.272 -5.774,6.272 H 5.773 C 2.591,6.272 0,3.458 0,0"
             style="fill:#9579d3;fill-opacity:1;fill-rule:nonzero;stroke:none"
             id="path48" /></g></g></g><text
       transform="matrix(1,0,0,-1,22.7681,63.4805)"
       style="font-variant:normal;font-weight:normal;font-stretch:normal;font-size:12px;font-family:'Myriad Pro';-inkscape-font-specification:MyriadPro-Regular;writing-mode:lr-tb;fill:#000000;fill-opacity:1;fill-rule:nonzero;stroke:none"
       id="text56"><tspan
         x="0 6.0840001 12.672 17.424 20.232 27.059999 29.892 35.903999 40.655998 43.200001 47.952 50.784 57.372002 64.080002 69.863998 76.524002"
         y="0"
         sodipodi:role="line"
         id="tspan50">Posibles slogan?</tspan><tspan
         x="0 7.8239999 13.512 19.164 21.708 28.32 34.98 40.764 43.307999 48.060001 54.647999 61.307999 65.279999 68.087997 72.839996 78.624001 81.167999 87.18 93.839996 96.384003 102.396 105.228 107.772 117.78 124.392 131.052 137.82001 144.12 146.604 149.088"
         y="28.799999"
         sodipodi:role="line"
         id="tspan52">Hay una sonrisa en el mundo...</tspan><tspan
         x="0 5.4239998 12.036 14.58 19.332001 25.92 32.580002 36.5508 39.358799 44.110802 49.894798 52.438801 59.098801 65.686798 70.438797 72.982803 76.486801 82.270798 87.022797 92.398804 95.206802 101.8668"
         y="43.200001"
         sodipodi:role="line"
         id="tspan54">Tu sonrisa nos fascina</tspan></text><g
       id="g58"><g
         id="g60"
         clip-path="url(#clipPath64)"><path
           d="M 92,121 H 23 v 69 h 69 z"
           style="fill:#0071ce;fill-opacity:1;fill-rule:nonzero;stroke:none"
           id="path66" /></g></g><text
       transform="matrix(1,0,0,-1,23,107.2686)"
       style="font-variant:normal;font-weight:normal;font-stretch:normal;font-size:12px;font-family:'Myriad Pro';-inkscape-font-specification:MyriadPro-Regular;writing-mode:lr-tb;fill:#000000;fill-opacity:1;fill-rule:nonzero;stroke:none"
       id="text70"><tspan
         x="0 6.1560001 12.312 18.468 24.624001 29.927999"
         y="0"
         sodipodi:role="line"
         id="tspan68">0071ce</tspan></text><g
       id="g72"><g
         id="g74"
         clip-path="url(#clipPath78)"><path
           d="m 169,121 h -69 v 69 h 69 z"
           style="fill:#9579d3;fill-opacity:1;fill-rule:nonzero;stroke:none"
           id="path80" /></g></g><text
       transform="matrix(1,0,0,-1,99.9995,107.2686)"
       style="font-variant:normal;font-weight:normal;font-stretch:normal;font-size:12px;font-family:'Myriad Pro';-inkscape-font-specification:MyriadPro-Regular;writing-mode:lr-tb;fill:#000000;fill-opacity:1;fill-rule:nonzero;stroke:none"
       id="text84"><tspan
         x="0 6.1560001 12.312 18.468 24.624001 31.392"
         y="0"
         sodipodi:role="line"
         id="tspan82">9578d3</tspan></text></g></svg>
